<mxfile host="app.diagrams.net" modified="2024-04-14T08:52:54.286Z" agent="Mozilla/5.0 (Windows NT 10.0; Win64; x64) AppleWebKit/537.36 (KHTML, like Gecko) Chrome/123.0.0.0 Safari/537.36" version="24.2.5" etag="xceCvbSFGu1DDrU9GwFl" type="github">
  <diagram name="Page-1" id="1ETUz2dAMMB753Uuloyf">
    <mxGraphModel>
      <root>
        <mxCell id="0" />
        <mxCell id="1" parent="0" />
      </root>
    </mxGraphModel>
  </diagram>
</mxfile>
